<svg width="65" height="16" viewBox="0 0 65 16" fill="none" xmlns="http://www.w3.org/2000/svg">
<path d="M11.5 13.75V7C11.5 6.92731 11.4837 6.855 11.4531 6.78906C11.4225 6.72332 11.3777 6.66498 11.3223 6.61816C11.2938 6.59406 11.2668 6.56815 11.2412 6.54102L7.04688 2.09961C6.98464 2.05347 6.91366 2.02134 6.83789 2.00781L6.75 2C6.64221 2 6.53819 2.0356 6.45215 2.09961L2.25879 6.54102C2.23316 6.56815 2.20623 6.59406 2.17773 6.61816C2.12234 6.66498 2.07748 6.72332 2.04688 6.78906C2.01628 6.855 2 6.92731 2 7V13.75C2 14.3023 1.55228 14.75 1 14.75C0.447715 14.75 0 14.3023 0 13.75V7C-1.54141e-08 6.63654 0.0794387 6.27697 0.232422 5.94727C0.369681 5.65161 0.565968 5.38887 0.804688 5.16797L5.05469 0.667969C5.08039 0.640751 5.10813 0.614986 5.13672 0.59082C5.58793 0.209544 6.15927 0 6.75 0L6.9707 0.00976562C7.48193 0.055065 7.96854 0.257263 8.36328 0.59082C8.39187 0.614986 8.41961 0.640751 8.44531 0.667969L12.6953 5.16797C12.934 5.38887 13.1303 5.65161 13.2676 5.94727C13.4206 6.27697 13.5 6.63654 13.5 7V13.75C13.5 14.3023 13.0523 14.75 12.5 14.75C11.9477 14.75 11.5 14.3023 11.5 13.75Z" fill="#FFC981" style="fill:#FFC981;fill:color(display-p3 1.0000 0.7867 0.5078);fill-opacity:1;"/>
<path d="M60.1016 15.1328C59.4766 15.1328 59.1016 14.75 59.1016 14.0859V10.5547L55.5781 5.1875C55.4375 4.96094 55.375 4.74219 55.375 4.51562C55.375 3.98438 55.8047 3.59375 56.375 3.59375C56.7969 3.59375 57.0391 3.74219 57.2969 4.17969L60.0938 8.63281H60.1406L62.9453 4.17969C63.1953 3.75781 63.4453 3.59375 63.8438 3.59375C64.4062 3.59375 64.8359 3.98438 64.8359 4.50781C64.8359 4.74219 64.7734 4.95312 64.625 5.1875L61.1094 10.5547V14.0859C61.1094 14.75 60.7344 15.1328 60.1016 15.1328Z" fill="#FFC981" style="fill:#FFC981;fill:color(display-p3 1.0000 0.7867 0.5078);fill-opacity:1;"/>
<path d="M50.0781 15C49.4531 15 49.0703 14.6094 49.0703 13.9531V4.64062C49.0703 3.97656 49.4531 3.59375 50.0781 3.59375C50.7109 3.59375 51.0859 3.97656 51.0859 4.64062V13.2969H55.4062C55.9531 13.2969 56.3281 13.625 56.3281 14.1484C56.3281 14.6719 55.9609 15 55.4062 15H50.0781Z" fill="#FFC981" style="fill:#FFC981;fill:color(display-p3 1.0000 0.7867 0.5078);fill-opacity:1;"/>
<path d="M43.1484 15.1875C40.8984 15.1875 39.3984 14.25 38.9609 12.9688C38.8906 12.7812 38.8516 12.5781 38.8516 12.3906C38.8516 11.8281 39.2109 11.4688 39.7422 11.4688C40.1875 11.4688 40.4688 11.6484 40.6875 12.1016C41.0391 13.0781 42.0078 13.5156 43.2109 13.5156C44.5703 13.5156 45.5234 12.8438 45.5234 11.9062C45.5234 11.0938 44.9609 10.5938 43.4922 10.2891L42.2812 10.0391C40.0234 9.57812 38.9688 8.51562 38.9688 6.86719C38.9688 4.88281 40.7109 3.53906 43.1562 3.53906C45.1484 3.53906 46.6953 4.42969 47.1562 5.92188C47.2031 6.04688 47.2266 6.19531 47.2266 6.38281C47.2266 6.875 46.875 7.21094 46.3516 7.21094C45.8828 7.21094 45.5938 7.00781 45.3828 6.57031C45 5.61719 44.1953 5.21094 43.1406 5.21094C41.8906 5.21094 41 5.80469 41 6.75C41 7.51562 41.5625 8.00781 42.9688 8.30469L44.1797 8.55469C46.5547 9.04688 47.5547 10 47.5547 11.6719C47.5547 13.8281 45.8594 15.1875 43.1484 15.1875Z" fill="#FFC981" style="fill:#FFC981;fill:color(display-p3 1.0000 0.7867 0.5078);fill-opacity:1;"/>
<path d="M32.5469 15.1875C29.6953 15.1875 27.9141 13.4844 27.9141 11.0234V4.64062C27.9141 3.97656 28.2969 3.59375 28.9219 3.59375C29.5547 3.59375 29.9297 3.97656 29.9297 4.64062V10.8438C29.9297 12.3828 30.875 13.4297 32.5469 13.4297C34.2188 13.4297 35.1719 12.3828 35.1719 10.8438V4.64062C35.1719 3.97656 35.5469 3.59375 36.1797 3.59375C36.8047 3.59375 37.1797 3.97656 37.1797 4.64062V11.0234C37.1797 13.4844 35.4062 15.1875 32.5469 15.1875Z" fill="#FFC981" style="fill:#FFC981;fill:color(display-p3 1.0000 0.7867 0.5078);fill-opacity:1;"/>
<path d="M20.9609 15.1875C17.6719 15.1875 15.6094 12.9531 15.6094 9.36719C15.6094 5.78125 17.6719 3.53906 20.9609 3.53906C24.2422 3.53906 26.3047 5.78125 26.3047 9.36719C26.3047 12.9531 24.2422 15.1875 20.9609 15.1875ZM20.9609 13.4688C22.9688 13.4688 24.25 11.875 24.25 9.36719C24.25 6.85156 22.9688 5.25781 20.9609 5.25781C18.9453 5.25781 17.6719 6.85156 17.6719 9.36719C17.6719 11.875 18.9453 13.4688 20.9609 13.4688Z" fill="#FFC981" style="fill:#FFC981;fill:color(display-p3 1.0000 0.7867 0.5078);fill-opacity:1;"/>
</svg>
